<svg width="947" height="434" viewBox="0 0 947 434" fill="none" xmlns="http://www.w3.org/2000/svg">
<path d="M175.03 184.76C171.78 184.18 169.08 183.34 166.91 182.25C164.33 180.91 161.25 178.89 157.67 176.17C154.09 173.45 150.51 169.84 146.93 165.32C137.55 153.54 128.7 142.46 120.37 132.09C112.04 121.73 101.51 109.36 88.7897 94.9802C97.9697 86.3602 107.24 76.8202 116.59 66.3602C125.94 55.9002 134.92 45.7802 143.53 35.9902C145.53 33.8202 148.11 32.0002 151.24 30.5302C154.37 29.0702 157.4 28.0002 160.33 27.3302C162.17 27.0002 163.67 26.7002 164.84 26.4502C166.01 26.2002 167.18 26.0302 168.35 25.9502C169.44 25.8702 170.4 25.7802 171.23 25.7002C172.06 25.6202 172.61 25.5702 172.86 25.5702V16.6602H106.13V25.5702C107.3 25.6502 108.81 25.7602 110.65 25.8802C112.49 26.0102 114.58 26.3202 116.92 26.8202C118.93 27.3202 120.7 27.9702 122.25 28.7602C123.8 29.5602 124.57 30.5802 124.57 31.8302C124.57 35.3402 123.04 39.3802 119.99 43.9302C116.94 48.4902 112.11 54.5702 105.5 62.1802C99.5597 69.0402 92.9597 75.9202 85.6797 82.8102C78.3997 89.7102 70.9997 96.3402 63.4797 102.69H60.9697V41.2602C60.9697 38.5002 61.4697 35.9502 62.4797 33.6102C62.6297 33.2702 62.7997 32.9402 62.9897 32.6302C62.9297 27.2902 62.6697 21.9602 61.9797 16.6802H10.9297V25.5902C13.2697 25.7602 15.9897 26.2602 19.0797 27.1002C22.1697 27.9402 24.8497 28.9002 27.1097 29.9902C29.9497 31.3302 31.8497 33.0402 32.8197 35.1302C33.7797 37.2202 34.2597 39.6902 34.2597 42.5302V170.96C34.2597 173.97 33.6997 176.54 32.5697 178.67C31.4397 180.8 29.6197 182.41 27.1097 183.5C25.5997 184.17 23.0097 184.67 19.3297 185.01C15.6497 185.35 12.8497 185.6 10.9297 185.76V194.67H64.7897C64.6997 192.55 64.7397 190.38 64.9897 188.28C64.7497 185.35 64.4797 182.42 64.3097 179.49C63.5697 178.73 62.9797 177.9 62.5397 176.99C61.4897 174.82 60.9697 172.35 60.9697 169.59V107.63H64.2297C77.1097 121.43 89.4197 135.66 101.17 150.34C112.92 165.02 123.6 179.8 133.22 194.68H183.14V185.77C180.97 185.69 178.27 185.35 175.02 184.77L175.03 184.76Z" fill="#F9DBBB"/>
<path d="M305.379 192.41C301.449 193.83 297.999 194.98 295.029 195.86C292.059 196.74 288.699 197.18 284.929 197.18C278.409 197.18 273.199 195.65 269.309 192.6C265.419 189.55 262.929 185.1 261.849 179.24H261.099C255.659 185.26 249.829 189.86 243.599 193.04C237.369 196.22 229.869 197.81 221.079 197.81C211.799 197.81 204.169 194.97 198.189 189.28C192.209 183.59 189.219 176.15 189.219 166.95C189.219 162.18 189.889 157.92 191.229 154.16C192.569 150.4 194.569 147.01 197.249 144C199.339 141.49 202.099 139.26 205.529 137.29C208.959 135.33 212.179 133.76 215.189 132.59C218.949 131.17 226.579 128.53 238.079 124.69C249.579 120.84 257.329 117.83 261.349 115.66V103.24C261.349 102.15 261.119 100.06 260.659 96.9702C260.199 93.8802 259.219 90.9502 257.709 88.1902C256.039 85.1002 253.679 82.4002 250.619 80.1002C247.569 77.8002 243.239 76.6502 237.639 76.6502C233.789 76.6502 230.219 77.3002 226.919 78.5902C223.609 79.8902 221.289 81.2502 219.959 82.6702C219.959 84.3402 220.359 86.8102 221.149 90.0702C221.939 93.3302 222.339 96.3402 222.339 99.1002C222.339 102.03 221.019 104.7 218.389 107.13C215.759 109.56 212.099 110.77 207.419 110.77C203.239 110.77 200.159 109.29 198.199 106.32C196.229 103.35 195.249 100.03 195.249 96.3502C195.249 92.6702 196.609 88.8202 199.329 85.3102C202.049 81.8002 205.579 78.6602 209.929 75.9002C213.689 73.5602 218.249 71.5702 223.599 69.9402C228.949 68.3102 234.179 67.4902 239.279 67.4902C246.299 67.4902 252.429 67.9702 257.659 68.9302C262.879 69.8902 267.629 71.9602 271.899 75.1402C276.159 78.2302 279.409 82.4402 281.619 87.7502C283.829 93.0602 284.939 99.9002 284.939 108.26C284.939 120.22 284.819 130.82 284.559 140.06C284.309 149.3 284.179 159.4 284.179 170.35C284.179 173.61 284.749 176.2 285.869 178.13C286.999 180.05 288.729 181.69 291.079 183.02C292.329 183.77 294.319 184.19 297.039 184.27C299.759 184.35 302.539 184.4 305.379 184.4V192.43V192.41ZM261.609 126.18C254.499 128.27 248.269 130.33 242.919 132.34C237.569 134.35 232.589 136.87 227.989 139.88C223.809 142.73 220.509 146.1 218.079 150C215.649 153.9 214.439 158.53 214.439 163.89C214.439 170.85 216.259 175.96 219.899 179.23C223.539 182.5 228.159 184.13 233.759 184.13C239.699 184.13 244.919 182.69 249.439 179.79C253.959 176.9 257.759 173.49 260.859 169.55L261.609 126.18Z" fill="#F9DBBB"/>
<path d="M432.748 192.41L392.368 195.17L390.478 193.41V177.73H389.728C387.728 179.82 385.468 182.06 382.968 184.44C380.458 186.82 377.588 188.98 374.328 190.9C370.568 193.16 366.938 194.87 363.428 196.04C359.918 197.21 354.958 197.8 348.528 197.8C337.588 197.8 329.258 194.23 323.548 187.09C317.828 179.95 314.968 169.57 314.968 155.95V96.8105C314.968 93.8005 314.398 91.2805 313.258 89.2305C312.118 87.1805 310.458 85.4105 308.268 83.9005C306.758 82.9005 304.858 82.1705 302.588 81.7105C300.318 81.2505 297.918 80.9405 295.398 80.7705V72.4905L336.668 69.4805L338.548 71.2405V157.16C338.548 166.11 340.558 172.84 344.568 177.35C348.578 181.87 353.388 184.12 358.988 184.12C363.588 184.12 367.688 183.41 371.278 181.99C374.868 180.57 377.878 178.9 380.308 176.98C382.568 175.23 384.548 173.37 386.268 171.41C387.978 169.45 389.298 167.63 390.218 165.96V95.9405C390.218 93.1805 389.628 90.7405 388.458 88.6105C387.288 86.4805 385.658 84.6605 383.568 83.1605C382.058 82.1605 379.828 81.5505 376.858 81.3405C373.888 81.1305 370.568 80.9405 366.888 80.7805V72.5005L411.908 69.4905L413.798 71.2405V169.34C413.798 172.18 414.378 174.6 415.558 176.61C416.728 178.61 418.358 180.33 420.448 181.75C421.948 182.67 423.748 183.28 425.838 183.57C427.928 183.86 430.228 184.05 432.738 184.13V192.41H432.748Z" fill="#F9DBBB"/>
<path d="M521.51 134.08C524.94 137.09 527.57 140.56 529.41 144.49C531.25 148.42 532.17 153.23 532.17 158.91C532.17 170.37 527.88 179.73 519.31 187.01C510.74 194.29 499.64 197.92 486.01 197.92C478.82 197.92 472.19 196.62 466.13 194.03C460.07 191.44 455.74 189.06 453.15 186.88L450.64 195.03H441.23L439.98 152.01H448.63C449.3 155.28 450.72 159.1 452.89 163.46C455.06 167.82 457.7 171.77 460.79 175.29C464.05 178.98 467.96 182.09 472.52 184.61C477.08 187.13 482.2 188.38 487.89 188.38C495.92 188.38 502.1 186.55 506.45 182.89C510.8 179.23 512.97 173.99 512.97 167.18C512.97 163.67 512.28 160.64 510.9 158.09C509.52 155.54 507.49 153.3 504.82 151.38C502.06 149.46 498.67 147.72 494.66 146.17C490.65 144.62 486.17 143.1 481.24 141.59C477.31 140.42 472.94 138.81 468.13 136.76C463.32 134.71 459.2 132.31 455.77 129.55C452.09 126.62 449.08 123.03 446.74 118.76C444.4 114.5 443.23 109.48 443.23 103.71C443.23 93.5898 446.99 85.0198 454.52 77.9998C462.05 70.9798 472.12 67.4598 484.75 67.4598C489.6 67.4598 494.55 68.0898 499.61 69.3398C504.67 70.5898 508.79 72.0998 511.97 73.8598L514.85 67.3398H523.88L525.76 107.1H517.11C515.35 98.1998 511.57 90.9599 505.76 85.3699C499.95 79.7899 492.86 76.9898 484.5 76.9898C477.64 76.9898 472.25 78.7198 468.32 82.1698C464.39 85.6198 462.42 89.7898 462.42 94.6798C462.42 98.4398 463.07 101.58 464.36 104.09C465.65 106.6 467.6 108.73 470.19 110.49C472.7 112.16 475.85 113.73 479.66 115.19C483.46 116.65 488.17 118.31 493.77 120.14C499.29 121.9 504.49 123.95 509.39 126.29C514.28 128.63 518.32 131.23 521.49 134.07L521.51 134.08Z" fill="#F9DBBB"/>
<path d="M674.67 194.67H613.84V186.39C615.76 186.22 617.9 186.06 620.24 185.89C622.58 185.72 624.5 185.39 626.01 184.89C628.35 184.14 630.09 182.82 631.21 180.94C632.34 179.06 632.9 176.61 632.9 173.6V110.01C632.9 101.23 630.83 94.46 626.68 89.69C622.53 84.92 617.48 82.54 611.53 82.54C607.17 82.54 603.13 83.23 599.4 84.61C595.67 85.99 592.34 87.68 589.41 89.69C586.56 91.78 584.38 93.87 582.87 95.96C581.36 98.05 580.19 99.81 579.35 101.23V172.35C579.35 175.19 579.91 177.54 581.04 179.37C582.17 181.21 583.9 182.63 586.25 183.63C588.09 184.47 589.99 185.09 591.96 185.51C593.92 185.93 596.08 186.22 598.42 186.39V194.67H537.84V186.39C539.75 186.22 541.74 186.04 543.82 185.83C545.9 185.62 547.64 185.31 549.05 184.89C551.37 184.14 553.12 182.82 554.28 180.94C555.44 179.06 556.02 176.61 556.02 173.6V29.49C556.02 26.64 555.37 23.8 554.08 20.96C552.78 18.11 551.09 15.98 549 14.56C547.49 13.47 544.84 12.7 541.04 12.24C537.23 11.78 534.16 11.47 531.82 11.3V3.26L577.6 0.5L579.36 2.38V88.68H579.86C582.62 85.92 585.14 83.47 587.4 81.34C589.66 79.21 592.64 76.97 596.32 74.63C599.5 72.62 603.25 70.95 607.56 69.61C611.87 68.27 616.71 67.6 622.07 67.6C633.13 67.6 641.63 71.09 647.57 78.07C653.52 85.05 656.49 95.11 656.49 108.24V172.59C656.49 175.52 657.01 177.88 658.07 179.68C659.12 181.48 660.87 182.88 663.31 183.88C665.25 184.63 666.99 185.2 668.55 185.57C670.11 185.95 672.15 186.22 674.68 186.39V194.67H674.67Z" fill="#F9DBBB"/>
<path d="M737.44 194.669H677.74V186.389C679.66 186.219 681.65 186.059 683.7 185.889C685.75 185.719 687.53 185.389 689.03 184.889C691.37 184.139 693.11 182.819 694.23 180.949C695.36 179.069 695.92 176.629 695.92 173.619V97.3094C695.92 94.6394 695.31 92.1895 694.1 89.9795C692.89 87.7695 691.19 85.9095 689.02 84.4095C687.43 83.4095 685.13 82.5494 682.12 81.8394C679.11 81.1294 676.35 80.6894 673.84 80.5194V72.2394L717.49 69.4795L719.25 71.2394V172.089C719.25 175.019 719.81 177.439 720.93 179.359C722.05 181.279 723.82 182.709 726.22 183.619C728.05 184.369 729.83 184.979 731.58 185.439C733.32 185.899 735.28 186.209 737.44 186.379V194.659V194.669ZM721.76 42.2395C721.76 47.0095 720.19 51.1695 717.06 54.7195C713.92 58.2795 710.06 60.0495 705.46 60.0495C701.2 60.0495 697.5 58.3595 694.36 54.9695C691.22 51.5795 689.66 43.6795 689.66 39.3295C689.66 34.7295 691.23 34.7595 694.36 31.3295C697.5 27.8995 701.2 26.1895 705.46 26.1895C710.23 26.1895 714.13 27.7995 717.19 31.0195C720.24 34.2395 721.77 37.9795 721.77 42.2495L721.76 42.2395Z" fill="#F9DBBB"/>
<path d="M737.44 194.669H677.74V186.389C679.66 186.219 681.65 186.059 683.7 185.889C685.75 185.719 687.53 185.389 689.03 184.889C691.37 184.139 693.11 182.819 694.23 180.949C695.36 179.069 695.92 176.629 695.92 173.619V97.3094C695.92 94.6394 695.31 92.1895 694.1 89.9795C692.89 87.7695 691.19 85.9095 689.02 84.4095C687.43 83.4095 685.13 82.5494 682.12 81.8394C679.11 81.1294 676.35 80.6894 673.84 80.5194V72.2394L717.49 69.4795L719.25 71.2394V172.089C719.25 175.019 719.81 177.439 720.93 179.359C722.05 181.279 723.82 182.709 726.22 183.619C728.05 184.369 729.83 184.979 731.58 185.439C733.32 185.899 735.28 186.209 737.44 186.379V194.659V194.669ZM721.76 42.2395C721.76 47.0095 720.19 51.1695 717.06 54.7195C713.92 58.2795 710.06 60.0495 705.46 60.0495C701.2 60.0495 697.5 58.3595 694.36 54.9695C691.22 51.5795 689.66 43.6795 689.66 39.3295C689.66 34.7295 691.23 34.7595 694.36 31.3295C697.5 27.8995 701.2 26.1895 705.46 26.1895C710.23 26.1895 714.13 27.7995 717.19 31.0195C720.24 34.2395 721.77 37.9795 721.77 42.2495L721.76 42.2395Z" fill="#F9DBBB"/>
<path d="M737.44 194.669H677.74V186.389C679.66 186.219 681.65 186.059 683.7 185.889C685.75 185.719 687.53 185.389 689.03 184.889C691.37 184.139 693.11 182.819 694.23 180.949C695.36 179.069 695.92 176.629 695.92 173.619V97.3094C695.92 94.6394 695.31 92.1895 694.1 89.9795C692.89 87.7695 691.19 85.9095 689.02 84.4095C687.43 83.4095 685.13 82.5494 682.12 81.8394C679.11 81.1294 676.35 80.6894 673.84 80.5194V72.2394L717.49 69.4795L719.25 71.2394V172.089C719.25 175.019 719.81 177.439 720.93 179.359C722.05 181.279 723.82 182.709 726.22 183.619C728.05 184.369 729.83 184.979 731.58 185.439C733.32 185.899 735.28 186.209 737.44 186.379V194.659V194.669ZM721.76 42.2395C721.76 47.0095 720.19 51.1695 717.06 54.7195C713.92 58.2795 710.06 60.0495 705.46 60.0495C701.2 60.0495 697.5 58.3595 694.36 54.9695C691.22 51.5795 689.66 43.6795 689.66 39.3295C689.66 34.7295 691.23 34.7595 694.36 31.3295C697.5 27.8995 701.2 26.1895 705.46 26.1895C710.23 26.1895 714.13 27.7995 717.19 31.0195C720.24 34.2395 721.77 37.9795 721.77 42.2495L721.76 42.2395ZM717.4 42.6395C717.4 45.8895 716.29 48.7295 714.06 51.1595C711.83 53.5895 709.09 54.7995 705.82 54.7995C702.79 54.7995 700.17 53.6395 697.94 51.3295C695.71 49.0195 694.6 46.3795 694.6 43.4095C694.6 40.2695 695.71 37.5295 697.94 35.1895C700.17 32.8495 702.79 31.6795 705.82 31.6795C709.2 31.6795 711.98 32.7795 714.15 34.9795C716.32 37.1795 717.4 39.7295 717.4 42.6395Z" fill="#F9DBBB"/>
<path d="M862.95 183.629C860.02 182.119 856.72 178.909 853.04 173.969C849.11 168.699 842.85 160.169 834.28 148.369C826.74 137.999 819.86 128.919 813.65 121.129C812.23 119.359 812.44 116.799 814.1 115.249C819.31 110.409 823.46 106.399 826.58 103.219C830.26 99.4692 833.11 96.7492 835.12 95.0792C837.96 92.5692 842.08 89.7492 847.47 86.6092C848.17 86.2092 848.88 85.8092 849.6 85.4292C850.09 85.1692 850.53 84.8292 850.88 84.3992C851.82 83.2492 853.34 80.9192 853.47 77.6792C853.53 76.2492 853.3 74.9893 852.98 73.9393C852.43 72.1593 850.74 70.9892 848.88 70.9892H816.02C813.63 70.9892 811.69 72.9292 811.69 75.3192C811.69 77.4192 813.19 79.1892 815.24 79.5792C817.48 80.0092 819.79 80.5692 822.16 81.2792C825.8 82.3692 827.62 84.0492 827.62 86.3092C827.62 87.0592 827.22 88.0492 826.43 89.2692C825.64 90.4892 824.9 91.4692 824.24 92.2292C819.05 98.0792 812.67 104.749 805.1 112.229C800.3 116.969 795.7 121.519 791.32 125.879C788.59 128.589 783.95 126.649 783.95 122.799V20.5392C783.95 13.9392 775.82 10.7492 771.36 15.6192C769.82 17.2992 768.31 19.0292 766.85 20.7892C766.66 21.0092 766.5 21.2592 766.36 21.5092C764.64 24.6992 762.87 27.8692 761.14 31.0392C760.79 31.6792 760.61 32.3892 760.61 33.1192V173.579C760.61 176.589 760.03 179.039 758.87 180.919C757.71 182.799 755.96 184.119 753.64 184.869C752.23 185.289 750.48 185.599 748.41 185.809C747.71 185.879 747.03 185.949 746.35 186.009C744.13 186.219 742.43 188.089 742.43 190.319C742.43 192.709 744.37 194.649 746.76 194.649H798.69C801.08 194.649 803.02 192.709 803.02 190.319V190.269C803.02 188.109 801.41 186.299 799.27 185.979C798.33 185.839 797.44 185.679 796.62 185.489C794.78 185.069 792.86 184.449 790.85 183.609C788.42 182.689 786.67 181.249 785.58 179.279C784.49 177.319 783.95 174.829 783.95 171.819V144.349C783.95 143.149 784.45 141.999 785.33 141.179L790.79 136.089C792.65 134.359 795.61 134.579 797.17 136.589C804.17 145.609 810.94 154.849 817.49 164.319C824.46 174.389 831.02 183.879 837.18 192.789C837.99 193.959 839.31 194.649 840.73 194.649H871.45C873.84 194.649 875.78 192.709 875.78 190.319C875.78 188.139 874.15 186.299 871.99 186.029C868.21 185.559 865.21 184.759 862.99 183.609L862.95 183.629Z" fill="#F9DBBB"/>
<path d="M87.9197 254.809C87.8897 255.579 87.8897 256.339 87.9097 257.109L87.6797 254.699H87.6897C87.7697 254.739 87.8397 254.769 87.9197 254.809Z" fill="#F9DBBB"/>
<path d="M120.1 362.321C118.31 357.341 115.52 352.761 111.77 348.571C108.34 344.891 104.3 341.681 99.67 338.921C95.03 336.161 90.19 333.701 85.18 331.521C79.66 329.101 73.95 326.821 68.06 324.681C62.16 322.551 56.16 320.021 50.06 317.101C43.19 313.831 37.97 309.681 34.38 304.621C30.79 299.561 28.98 293.181 28.98 285.491C28.98 277.801 31.78 271.891 37.39 266.791C42.99 261.701 49.76 259.141 57.7 259.141C65.23 259.141 71.58 260.581 76.76 263.471C81.39 266.041 85.37 269.401 88.74 273.541C88.97 273.451 89.2 273.381 89.44 273.301L89.02 268.941C89.25 270.361 89.5 271.781 89.76 273.191C90.15 273.061 90.54 272.931 90.94 272.831C91.2 272.551 91.35 272.201 91.48 271.541C92.8 264.771 92.61 263.261 91.48 259.421C91.01 257.781 89.37 254.881 87.68 254.691C87.76 254.731 87.83 254.761 87.91 254.801C87.88 255.571 87.88 256.331 87.9 257.101L87.67 254.691C85.62 253.751 83.52 252.831 81.33 251.981C74.85 249.481 67.52 248.221 59.32 248.221C52.13 248.221 45.23 249.451 38.63 251.911C32.02 254.391 26.3 257.791 21.44 262.131C16.34 266.731 12.42 271.961 9.66 277.811C6.9 283.671 5.51 289.971 5.51 296.741C5.51 308.531 8.3 318.081 13.86 325.401C19.42 332.711 27.21 338.621 37.24 343.141C42.34 345.471 48.41 347.951 55.43 350.571C62.46 353.201 68.69 355.591 74.13 357.751C82.07 360.941 88.05 365.601 92.06 371.761C96.07 377.911 98.08 384.551 98.08 391.661C98.08 396.521 97.43 400.811 96.14 404.541C94.83 408.261 92.86 411.501 90.18 414.271C87.5 417.031 84.01 419.171 79.71 420.681C75.41 422.191 70.37 422.931 64.61 422.931C56.91 422.931 50.15 421.481 44.35 418.541C38.53 415.621 33.46 411.691 29.11 406.761C24.51 401.481 20.8 395.821 18 389.761C15.2 383.701 12.75 376.901 10.66 369.381H0.5L2.26 430.341H12.29L17.69 421.191C23.45 424.701 30.32 427.691 38.26 430.161C46.2 432.621 54.15 433.861 62.09 433.861C79.32 433.861 93.74 428.761 105.37 418.551C116.99 408.361 122.8 395.391 122.8 379.671C122.8 373.061 121.9 367.271 120.09 362.301L120.1 362.321Z" fill="#F9DBBB"/>
<path d="M89.7712 273.189C89.5112 271.769 89.2613 270.349 89.0312 268.939L89.4512 273.299C89.5612 273.259 89.6612 273.229 89.7712 273.189Z" fill="#F9DBBB"/>
<path d="M212.332 322.491C212.332 326.751 211.282 330.541 209.192 333.841C207.102 337.141 203.882 338.801 199.532 338.801C194.852 338.801 191.272 337.591 188.802 335.161C186.332 332.741 185.102 330.061 185.102 327.131C185.102 325.291 185.242 323.621 185.542 322.111C185.832 320.601 186.102 319.101 186.362 317.601C182.432 317.601 177.832 319.191 172.562 322.371C167.292 325.551 162.822 330.061 159.142 335.921V407.921C159.142 410.851 159.712 413.231 160.832 415.071C161.962 416.911 163.742 418.291 166.162 419.211C168.252 420.051 170.952 420.671 174.252 421.091C177.552 421.511 180.422 421.801 182.842 421.971V430.251H117.632V421.971C119.552 421.801 121.542 421.641 123.592 421.471C125.642 421.301 127.422 420.971 128.922 420.471C131.262 419.721 133.002 418.401 134.132 416.521C135.262 414.641 135.822 412.201 135.822 409.191V332.891C135.822 330.301 135.212 327.751 134.002 325.251C132.792 322.751 131.092 320.741 128.922 319.241C127.332 318.241 125.452 317.511 123.282 317.051C121.102 316.591 118.762 316.281 116.262 316.111V307.831L157.402 305.071L159.162 306.831V324.261H159.792C164.972 317.491 170.742 312.351 177.102 308.831C183.452 305.321 189.272 303.561 194.532 303.561C199.792 303.561 204.082 305.271 207.392 308.701C210.692 312.131 212.342 316.731 212.342 322.501L212.332 322.491Z" fill="#F9DBBB"/>
<path d="M276.97 421.011C275.23 420.551 273.44 419.941 271.61 419.191C269.2 418.271 267.44 416.851 266.32 414.931C265.2 413.011 264.64 410.581 264.64 407.661V306.811L262.88 305.051L219.23 307.811V316.091C221.74 316.261 224.5 316.701 227.51 317.411C230.52 318.121 232.82 318.981 234.41 319.981C236.58 321.481 238.28 323.341 239.49 325.551C240.7 327.771 241.31 330.211 241.31 332.881V409.181C241.31 412.191 240.75 414.631 239.62 416.511C238.49 418.391 236.76 419.701 234.42 420.461C232.91 420.961 231.14 421.291 229.09 421.461C229.01 421.461 228.93 421.471 228.85 421.481C229.19 424.381 229.15 427.311 229.04 430.241H282.84V421.961C280.68 421.791 278.73 421.481 276.98 421.021L276.97 421.011Z" fill="#F9DBBB"/>
<path d="M369.53 309.79V316C369.53 317.14 370.14 318.19 371.12 318.77C371.9 319.24 372.62 319.74 373.28 320.28C374.66 321.41 375.35 322.68 375.35 324.1C375.35 326.1 374.97 328.09 374.22 330.05C373.47 332.01 372.67 334.12 371.84 336.38C366.57 349.58 361.66 361.52 357.1 372.22C353.94 379.63 351.15 386.2 348.74 391.93C347.63 394.57 343.89 394.56 342.78 391.92C339.36 383.7 335.27 373.75 330.49 362.07C324.26 346.84 319.44 334.97 316.02 326.46C315.99 326.39 315.97 326.32 315.95 326.26C315.54 324.97 315.13 323.81 314.73 322.8C314.31 321.76 314.1 321.11 314.1 320.86C314.1 319.59 315.2 318.53 317.38 317.67C318.67 317.16 319.5 315.91 319.46 314.52C319.42 313.01 319.42 311.5 319.43 309.99L316.04 306.57H275.14C273.35 306.57 271.91 308.02 271.91 309.8V312.21C271.91 313.7 272.93 314.98 274.38 315.34C277.31 316.06 280.23 317.26 283.14 318.92C286.86 321.05 289.56 324.04 291.23 327.89C298.42 344.87 305.36 361.44 312.05 377.62C318.51 393.24 325.55 410.48 333.18 429.34C333.67 430.56 334.86 431.37 336.18 431.37H341.45C342.84 431.37 344.07 430.49 344.51 429.16C345.9 424.99 347.39 420.66 348.99 416.19C350.87 410.92 352.65 406.37 354.32 402.52C360.01 389.14 365.48 376.37 370.75 364.2C376.02 352.03 381.12 340.35 386.05 329.14C388.48 323.96 391.38 320.34 394.77 318.29C397.42 316.69 400.19 315.5 403.08 314.75C404.5 314.38 405.5 313.1 405.5 311.63V309.8C405.5 308.01 404.05 306.57 402.27 306.57H372.77C370.98 306.57 369.54 308.02 369.54 309.8L369.53 309.79Z" fill="#F9DBBB"/>
<path d="M510.539 427.971C506.609 429.391 503.159 430.541 500.189 431.421C497.219 432.301 493.859 432.741 490.089 432.741C483.569 432.741 478.359 431.211 474.469 428.161C470.579 425.111 468.089 420.661 467.009 414.801H466.259C460.819 420.821 454.989 425.421 448.759 428.601C442.529 431.781 435.029 433.371 426.239 433.371C416.959 433.371 409.329 430.531 403.349 424.841C397.369 419.161 394.379 411.711 394.379 402.511C394.379 397.741 395.049 393.481 396.389 389.721C397.729 385.961 399.729 382.571 402.409 379.561C404.499 377.051 407.259 374.821 410.689 372.851C414.119 370.891 417.339 369.321 420.349 368.151C424.109 366.731 431.739 364.101 443.239 360.251C454.739 356.411 462.489 353.401 466.509 351.221V338.801C466.509 337.711 466.279 335.621 465.819 332.531C465.359 329.441 464.379 326.511 462.869 323.751C461.199 320.661 458.839 317.961 455.779 315.661C452.729 313.361 448.399 312.211 442.799 312.211C438.949 312.211 435.379 312.861 432.079 314.151C428.769 315.451 426.449 316.811 425.119 318.231C425.119 319.901 425.519 322.371 426.309 325.631C427.099 328.891 427.499 331.901 427.499 334.661C427.499 337.591 426.179 340.261 423.549 342.691C420.919 345.121 417.259 346.331 412.579 346.331C408.399 346.331 405.319 344.851 403.359 341.881C401.389 338.911 400.409 335.591 400.409 331.911C400.409 328.231 401.769 324.381 404.489 320.871C407.209 317.361 410.739 314.221 415.089 311.461C418.849 309.121 423.409 307.131 428.759 305.501C434.109 303.871 439.339 303.051 444.439 303.051C451.459 303.051 457.589 303.531 462.819 304.491C468.039 305.451 472.789 307.521 477.059 310.701C481.319 313.791 484.569 318.001 486.779 323.311C488.989 328.621 490.099 335.461 490.099 343.821C490.099 355.781 489.979 366.381 489.719 375.621C489.469 384.861 489.339 394.961 489.339 405.911C489.339 409.171 489.909 411.761 491.029 413.691C492.159 415.611 493.889 417.241 496.239 418.581C497.489 419.331 499.479 419.751 502.199 419.831C504.919 419.911 507.699 419.961 510.539 419.961V427.991V427.971ZM466.769 361.741C459.659 363.841 453.429 365.891 448.079 367.901C442.729 369.911 437.749 372.431 433.149 375.441C428.969 378.291 425.669 381.671 423.239 385.561C420.809 389.461 419.599 394.091 419.599 399.451C419.599 406.411 421.419 411.521 425.059 414.791C428.699 418.061 433.319 419.691 438.919 419.691C444.859 419.691 450.079 418.251 454.599 415.351C459.119 412.461 462.919 409.041 466.019 405.111L466.769 361.741Z" fill="#F9DBBB"/>
<path d="M581.72 421.581C581.72 423.571 580.5 425.351 578.65 426.091C574.34 427.811 570.22 429.291 566.29 430.551C561.44 432.101 555.5 432.871 548.48 432.871C538.11 432.871 530.81 430.261 526.59 425.031C522.37 419.801 520.26 412.421 520.26 402.891V323.941C520.26 321.271 518.09 319.101 515.42 319.101H502.77C500.1 319.101 497.93 316.931 497.93 314.261V311.901C497.93 309.231 500.1 307.061 502.77 307.061H515.92C518.59 307.061 520.76 304.891 520.76 302.221V273.391C520.76 270.721 522.93 268.551 525.6 268.551H538.75C541.42 268.551 543.59 270.721 543.59 273.391V302.221C543.59 304.891 545.76 307.061 548.43 307.061H574.25C576.92 307.061 579.09 309.231 579.09 311.901V314.261C579.09 316.931 576.92 319.101 574.25 319.101H548.68C546.01 319.101 543.84 321.271 543.84 323.941V388.211C543.84 393.401 544.03 397.721 544.4 401.191C544.78 404.661 545.67 407.691 547.1 410.281C548.44 412.711 550.44 414.541 553.12 415.801C555.8 417.051 559.39 417.681 563.91 417.681C566 417.681 569.07 417.491 573.13 417.121C574.27 417.011 575.32 416.901 576.28 416.781C579.17 416.411 581.72 418.661 581.72 421.581Z" fill="#F9DBBB"/>
<path d="M676.829 378.71C674.989 374.78 672.349 371.31 668.929 368.3C665.749 365.46 661.719 362.87 656.829 360.52C651.939 358.18 646.729 356.13 641.209 354.37C635.609 352.53 630.899 350.88 627.099 349.41C623.289 347.95 620.139 346.38 617.629 344.71C615.039 342.95 613.089 340.82 611.799 338.31C610.499 335.8 609.859 332.67 609.859 328.9C609.859 324.02 611.819 319.85 615.759 316.39C619.689 312.94 625.079 311.21 631.939 311.21C640.299 311.21 647.389 314 653.199 319.59C658.539 324.72 662.169 331.26 664.089 339.2C664.389 340.45 665.529 341.32 666.819 341.32H670.259C671.869 341.32 673.149 339.98 673.069 338.37L672.049 316.83C671.999 315.84 671.439 314.93 670.559 314.47C665.789 311.96 661.029 309.71 656.619 306.76C656.479 306.66 656.329 306.58 656.169 306.51C653.579 305.41 650.549 304.42 647.059 303.56C641.999 302.31 637.049 301.68 632.199 301.68C619.569 301.68 609.499 305.19 601.969 312.22C594.439 319.24 590.679 327.82 590.679 337.93C590.679 343.7 591.849 348.72 594.189 352.98C596.529 357.24 599.539 360.84 603.219 363.77C606.649 366.53 610.769 368.93 615.579 370.98C620.389 373.03 624.759 374.64 628.689 375.81C633.619 377.32 638.099 378.84 642.109 380.39C646.119 381.94 649.509 383.67 652.269 385.59C654.949 387.51 656.969 389.75 658.349 392.3C659.729 394.85 660.419 397.88 660.419 401.39C660.419 408.2 658.239 413.44 653.899 417.1C649.549 420.76 643.359 422.59 635.339 422.59C629.649 422.59 624.529 421.33 619.969 418.81C615.409 416.29 611.499 413.19 608.239 409.5C605.649 406.55 603.389 403.3 601.449 399.76C600.939 398.84 599.979 398.26 598.929 398.27C596.249 398.3 593.579 398.27 590.899 398.04C589.229 397.9 587.799 399.24 587.849 400.92L588.599 426.5C588.639 428.02 589.889 429.24 591.419 429.24H596.009C597.249 429.24 598.339 428.43 598.699 427.25L599.449 424.81C599.989 423.05 602.039 422.26 603.599 423.23C606.119 424.8 609.439 426.47 613.579 428.24C619.639 430.83 626.269 432.13 633.459 432.13C647.089 432.13 658.189 428.49 666.759 421.22C675.329 413.94 679.619 404.58 679.619 393.12C679.619 387.43 678.699 382.63 676.859 378.7L676.829 378.71Z" fill="#F9DBBB"/>
<path d="M801.969 427.971C798.039 429.391 794.589 430.541 791.619 431.421C788.649 432.301 785.289 432.741 781.519 432.741C774.999 432.741 769.789 431.211 765.899 428.161C762.009 425.111 759.519 420.661 758.439 414.801H757.689C752.249 420.821 746.419 425.421 740.189 428.601C733.959 431.781 726.459 433.371 717.669 433.371C708.389 433.371 700.759 430.531 694.779 424.841C688.799 419.161 685.809 411.711 685.809 402.511C685.809 397.741 686.479 393.481 687.819 389.721C689.159 385.961 691.159 382.571 693.839 379.561C695.929 377.051 698.689 374.821 702.119 372.851C705.549 370.891 708.769 369.321 711.779 368.151C715.539 366.731 723.169 364.101 734.669 360.251C746.169 356.411 753.919 353.401 757.939 351.221V338.801C757.939 337.711 757.709 335.621 757.249 332.531C756.789 329.441 755.809 326.511 754.299 323.751C752.629 320.661 750.269 317.961 747.209 315.661C744.159 313.361 739.829 312.211 734.229 312.211C730.379 312.211 726.809 312.861 723.509 314.151C720.199 315.451 717.879 316.811 716.549 318.231C716.549 319.901 716.949 322.371 717.739 325.631C718.529 328.891 718.929 331.901 718.929 334.661C718.929 337.591 717.609 340.261 714.979 342.691C712.349 345.121 708.689 346.331 704.009 346.331C699.829 346.331 696.749 344.851 694.789 341.881C692.819 338.911 691.839 335.591 691.839 331.911C691.839 328.231 693.199 324.381 695.919 320.871C698.639 317.361 702.169 314.221 706.519 311.461C710.279 309.121 714.839 307.131 720.189 305.501C725.539 303.871 730.769 303.051 735.869 303.051C742.889 303.051 749.019 303.531 754.249 304.491C759.469 305.451 764.219 307.521 768.489 310.701C772.749 313.791 775.999 318.001 778.209 323.311C780.419 328.621 781.529 335.461 781.529 343.821C781.529 355.781 781.409 366.381 781.149 375.621C780.899 384.861 780.769 394.961 780.769 405.911C780.769 409.171 781.339 411.761 782.459 413.691C783.589 415.611 785.319 417.241 787.669 418.581C788.919 419.331 790.909 419.751 793.629 419.831C796.349 419.911 799.129 419.961 801.969 419.961V427.991V427.971ZM758.199 361.741C751.089 363.841 744.859 365.891 739.509 367.901C734.159 369.911 729.179 372.431 724.579 375.441C720.399 378.291 717.099 381.671 714.669 385.561C712.239 389.461 711.029 394.091 711.029 399.451C711.029 406.411 712.849 411.521 716.489 414.791C720.129 418.061 724.749 419.691 730.349 419.691C736.289 419.691 741.509 418.251 746.029 415.351C750.549 412.461 754.349 409.041 757.449 405.111L758.199 361.741Z" fill="#F9DBBB"/>
<path d="M940.742 421.2C939.282 420.87 937.542 420.28 935.542 419.44C933.112 418.44 931.402 417.04 930.402 415.24C929.402 413.44 928.892 411.08 928.892 408.15V343.8C928.892 331.51 926.032 321.66 920.302 314.26C914.572 306.86 905.772 303.16 893.902 303.16C888.552 303.16 883.742 303.83 879.482 305.17C875.222 306.51 871.532 308.18 868.442 310.19C865.762 311.95 862.922 314.22 859.912 317.03C856.902 319.83 854.392 322.24 852.382 324.24H851.752V307.99C851.752 307.23 851.452 306.5 850.912 305.97C850.332 305.39 849.522 305.08 848.702 305.14L811.522 307.63C810.022 307.73 808.852 308.98 808.852 310.48V313.48C808.852 314.93 809.942 316.15 811.392 316.31C812.962 316.49 814.452 316.72 815.882 317.02C818.052 317.48 819.932 318.21 821.522 319.21C823.692 320.72 825.392 322.66 826.602 325.04C827.812 327.42 828.422 330.03 828.422 332.87V409.17C828.422 412.18 827.852 414.62 826.732 416.5C825.602 418.38 823.862 419.69 821.522 420.45C820.012 420.95 818.242 421.28 816.192 421.45C815.062 421.54 813.942 421.64 812.842 421.73C811.362 421.85 810.232 423.09 810.232 424.58V427.37C810.232 428.95 811.512 430.23 813.092 430.23H836.952C845.522 430.23 853.472 423.66 852.662 414.79C852.632 414.48 852.672 414.16 852.682 413.85C852.682 413.51 852.632 413.17 852.512 412.85C852.002 411.42 851.742 409.77 851.742 407.9V337.56C851.742 337.05 851.872 336.55 852.132 336.12C852.882 334.88 853.952 333.32 855.322 331.46C856.962 329.25 859.152 327.18 861.922 325.25C864.772 323.24 868.042 321.55 871.732 320.17C875.422 318.79 879.482 318.1 883.922 318.1C889.872 318.1 894.922 320.48 899.072 325.25C903.222 330.02 905.302 336.79 905.302 345.57V409.16C905.302 410.33 905.212 411.41 905.032 412.41C904.962 412.79 904.982 413.16 905.052 413.54C905.192 414.34 905.212 415.2 905.032 416.12C905.032 416.17 905.012 416.21 905.002 416.26C903.652 423.56 909.472 430.24 916.902 430.24H943.962C945.542 430.24 946.822 428.96 946.822 427.38V424.59C946.822 423.13 945.722 421.9 944.272 421.75C942.822 421.6 941.682 421.42 940.732 421.21L940.742 421.2Z" fill="#F9DBBB"/>
<path d="M260.949 301.76L247.319 294.08L233.269 300.96L236.349 285.62L225.469 274.39L241.009 272.58L248.329 258.76L254.849 272.98L270.259 275.68L258.749 286.27L260.949 301.76Z" fill="#F9DBBB"/>
<path d="M89.7712 273.189C89.5112 271.769 89.2613 270.349 89.0312 268.939L89.4512 273.299C89.5612 273.259 89.6612 273.229 89.7712 273.189Z" fill="#F9DBBB"/>
<path d="M62.0606 17.2891C62.0606 17.2891 65.7806 26.7291 61.1406 38.7491Z" fill="#F9DBBB"/>
</svg>
