<svg width="737" height="815" viewBox="0 0 737 815" fill="none" xmlns="http://www.w3.org/2000/svg">
<path d="M508.97 726.33H508.53C508.55 726.2 508.57 726.06 508.59 725.93L509 725.52M249.67 14.83C249.67 14.83 74 9.82999 61.5 95.83V732.83H61.63C62.08 746.58 59.89 800.35 0 813.52C0.2 813.54 186.04 829.27 188.5 732.83H188.62V95.83C188.62 95.83 182.22 29.67 249.67 14.83ZM188.97 733.33H188.53C188.55 733.2 188.57 733.06 188.59 732.93L189 732.52M233.89 350.79C233.89 350.79 212.25 374.78 209.86 376.08C212.51 369.93 273.89 264.87 303.71 217.72C334.01 169.82 381.4 106.62 409.03 87.78C408.22 147.16 382.73 203.68 382.73 203.68C353.73 229.7 233.89 350.78 233.89 350.78V350.79ZM426.74 196.67C426.74 196.67 327.65 258.75 217.87 382.08C278.62 349.71 359.02 297.56 387.26 285.21C394.98 281.84 425.35 268.67 470.03 249C494.03 238.44 513.63 229.76 526.28 224.14C551.4 199.25 593.16 154.79 622.27 118.07C622.27 118.07 556.43 123.11 426.74 196.66V196.67ZM522.71 44.59C493.32 53.62 470.54 60.78 449.24 69.24C449.24 69.24 442.73 147.65 425.73 175.66C425.73 175.66 550.23 78.09 647.82 85.24C671.02 54.72 692.34 27.35 706.25 0C651.63 9.12 589.67 24 522.71 44.58V44.59ZM250.8 492.71C252.21 482.71 251.24 470.57 244 463.52C233.69 453.48 220.31 445.56 210 435.52C243.93 437.29 255.42 436.94 269 429.52C274.48 426.53 291.09 415.2 303 409.52C311.21 405.6 318.89 402.5 325.71 400.04C337.88 395.65 359.86 397.93 371 404.52C377.84 408.57 392 418.52 398 426.52C417.86 453 411 453.52 429.77 527.86C431.08 533.05 437.25 535.35 442.02 532.91C453.25 527.17 465.77 520.76 476 515.52C562.79 471.07 649.45 426.4 736 381.52C735.65 387.41 734.88 395.73 733 405.52C730.35 419.38 723.48 453.1 697 485.52C674.42 513.18 648.06 527.04 633 533.52C633.5 537.58 636.64 567.15 615 589.52C596.77 608.37 568.17 614.63 542 605.52C542.76 608.47 547.03 626.26 536 643.52C525.63 659.74 485.24 664.79 482 665.52C492.82 682.74 521.15 720.14 540 739.52C581.98 782.68 614.18 799.99 645 812.52C631.47 815.62 462 813.52 439 813.52C437.45 813.52 436.97 802.33 430.82 784.36C425.05 767.51 414.3 744.68 393 719.52C389.21 715.04 384.55 714.04 377 710.52C361.89 703.48 349.59 699.98 348 699.52C348 699.52 321.41 691.87 291 672.52C241.6 641.08 223 593.52 231 544.52C236.92 508.25 248 512.52 250.8 492.71ZM433.81 495.44C431.11 510.33 439.08 522.15 442.53 522.88C474.02 506 486.97 500.27 518.46 483.39C523.9 479.43 541.72 461.27 547.44 441.7C553.49 421.02 547.43 405.68 546.49 399.02C549.82 395.54 589.49 379.02 589.17 341.55C588.89 308.91 574.87 270.61 570.7 267.23C551.68 298.24 506.37 398.16 433.79 495.44H433.81ZM697.01 733.52C675.47 733.52 658.01 750.98 658.01 772.52C658.01 794.06 675.47 811.52 697.01 811.52C718.55 811.52 736.01 794.06 736.01 772.52C736.01 750.98 718.55 733.52 697.01 733.52Z" fill="#F9DBBB"/>
</svg>
